<?xml version="1.0" standalone="no"?>
<!DOCTYPE svg PUBLIC "-//W3C//DTD SVG 20010904//EN"
 "http://www.w3.org/TR/2001/REC-SVG-20010904/DTD/svg10.dtd">
<svg version="1.0" xmlns="http://www.w3.org/2000/svg"
 width="192.000000pt" height="192.000000pt" viewBox="0 0 192.000000 192.000000"
 preserveAspectRatio="xMidYMid meet">

<g transform="translate(0.000000,192.000000) scale(0.100000,-0.100000)"
fill="#000000" stroke="none">
<path d="M1407 1689 c7 -7 15 -10 18 -7 3 3 -2 9 -12 12 -14 6 -15 5 -6 -5z"/>
<path d="M1082 1678 c-17 -17 -15 -32 8 -53 11 -10 17 -22 14 -26 -3 -5 2 -9
11 -9 9 0 14 4 11 9 -7 11 21 8 31 -4 4 -4 2 -5 -4 -1 -7 4 -13 2 -13 -3 0 -6
4 -11 9 -11 5 0 18 -3 28 -6 14 -4 15 -4 4 4 -7 5 -10 15 -7 21 8 13 42 10 70
-6 38 -22 85 6 77 46 -5 26 -5 26 -11 -4 -4 -24 -10 -30 -33 -31 -26 -1 -27 0
-13 21 12 18 12 22 1 22 -8 0 -13 -3 -11 -6 2 -3 -3 -13 -12 -21 -14 -13 -15
-12 -9 3 4 11 1 17 -8 17 -9 0 -12 -6 -9 -17 5 -14 4 -15 -4 -4 -5 7 -15 10
-21 7 -6 -4 -11 -3 -11 3 0 5 6 12 13 14 7 4 8 6 1 6 -6 1 -17 -6 -24 -14 -16
-19 -50 -19 -76 -1 -16 13 -17 18 -6 35 14 24 12 27 -6 9z"/>
<path d="M1154 1675 c15 -8 32 -13 36 -10 5 3 11 1 15 -5 3 -5 14 -10 23 -9
14 0 14 2 2 6 -8 3 -22 11 -30 18 -8 6 -28 12 -45 13 l-30 2 29 -15z"/>
<path d="M1045 1670 c-3 -5 -15 -10 -25 -10 -10 0 -22 -5 -26 -11 -4 -8 1 -9
15 -4 13 4 28 1 36 -5 11 -9 15 -9 15 -1 0 6 -5 11 -11 11 -8 0 -8 5 1 15 7 8
10 15 7 15 -3 0 -9 -4 -12 -10z"/>
<path d="M1434 1668 c-4 -7 -3 -8 4 -4 7 4 12 3 12 -2 0 -6 8 -13 17 -16 15
-6 15 -4 -2 14 -21 23 -22 24 -31 8z"/>
<path d="M868 1623 c-10 -2 -18 -9 -18 -15 0 -5 7 -8 15 -4 9 3 24 -4 36 -19
18 -19 25 -22 39 -12 22 13 70 -5 70 -26 0 -8 11 -19 25 -25 17 -8 25 -8 25
-1 0 6 4 8 9 5 11 -7 23 22 15 35 -3 5 -13 9 -22 9 -9 0 -55 10 -101 22 -61
16 -79 24 -65 29 21 8 1 10 -28 2z"/>
<path d="M1350 1615 c-11 -13 -10 -14 4 -9 9 3 16 10 16 15 0 13 -6 11 -20 -6z"/>
<path d="M809 1611 c-14 -3 -41 -18 -60 -34 -19 -16 -25 -24 -14 -20 11 4 29
15 39 25 11 10 28 18 37 18 10 0 21 5 24 10 3 6 5 9 3 9 -2 -1 -14 -4 -29 -8z"/>
<path d="M1380 1596 c0 -2 7 -7 16 -10 8 -3 12 -2 9 4 -6 10 -25 14 -25 6z"/>
<path d="M1320 1580 c0 -5 5 -10 10 -10 6 0 10 5 10 10 0 6 -4 10 -10 10 -5 0
-10 -4 -10 -10z"/>
<path d="M1189 1536 c-12 -26 -19 -50 -15 -53 3 -4 6 2 6 13 1 18 1 18 11 1 6
-11 9 -30 6 -43 -2 -13 0 -24 4 -24 5 0 9 -20 9 -45 0 -25 -5 -45 -10 -45 -6
0 -4 -10 5 -23 8 -13 12 -26 9 -30 -3 -3 2 -16 11 -29 l17 -23 -6 23 c-3 12
-9 32 -13 45 -3 12 -5 37 -4 55 1 18 -3 64 -9 102 -9 52 -9 74 0 90 6 12 9 24
6 27 -3 3 -15 -16 -27 -41z"/>
<path d="M1350 1558 c0 -13 33 -25 54 -20 12 3 18 1 14 -3 -10 -10 24 -35 36
-27 5 3 1 9 -10 14 -18 8 -18 8 1 5 12 -2 19 -9 17 -19 -4 -26 18 -32 38 -10
20 21 17 26 -19 47 -10 6 -12 4 -6 -5 6 -9 2 -10 -16 -5 -13 4 -29 11 -35 16
-6 5 -20 6 -29 2 -12 -4 -16 -3 -11 5 4 7 -1 10 -14 9 -11 -1 -20 -5 -20 -9z
m143 -53 c-7 -21 -12 -19 -10 4 0 11 5 18 9 15 4 -3 5 -11 1 -19z"/>
<path d="M1430 1566 c0 -2 7 -6 15 -10 8 -3 15 -1 15 4 0 6 -7 10 -15 10 -8 0
-15 -2 -15 -4z"/>
<path d="M693 1542 c-3 -12 -10 -22 -17 -21 -6 1 -22 1 -36 -1 -23 -1 -23 -2
-5 -9 11 -5 21 -5 23 0 2 4 9 6 17 3 14 -6 41 33 30 44 -3 3 -8 -4 -12 -16z"/>
<path d="M1230 1551 c0 -5 12 -24 27 -41 21 -26 24 -33 12 -41 -13 -8 -5 -13
15 -10 4 1 14 -4 22 -10 11 -9 14 -8 14 6 0 14 6 16 37 10 l36 -6 -31 30 c-17
17 -34 31 -38 31 -4 0 -15 6 -23 14 -20 17 -71 29 -71 17z"/>
<path d="M1104 1526 c-3 -14 -12 -26 -20 -26 -8 0 -14 -4 -14 -10 0 -5 7 -7
16 -3 16 6 38 52 30 61 -3 2 -8 -7 -12 -22z"/>
<path d="M1560 1535 c0 -5 10 -20 23 -33 12 -14 16 -22 10 -18 -7 4 -13 2 -13
-3 0 -6 5 -11 12 -11 6 0 8 -3 5 -6 -4 -4 -18 1 -32 10 l-26 17 16 -30 c8 -17
22 -31 30 -31 8 0 15 -5 15 -11 0 -6 11 -8 28 -4 24 5 30 2 40 -19 8 -19 8
-27 0 -32 -7 -4 -8 -3 -4 4 4 7 2 12 -4 12 -8 0 -9 -7 -5 -17 4 -10 10 -27 13
-38 3 -11 13 -26 21 -33 9 -8 10 -11 4 -7 -19 9 -16 -13 6 -44 19 -26 19 -75
0 -87 -5 -2 -6 -26 -3 -52 11 -100 14 -111 29 -105 8 3 15 0 15 -5 0 -6 7 -18
16 -27 12 -11 14 -23 8 -43 -7 -26 -8 -26 -11 -4 -5 23 -11 27 -28 14 -25 -18
-49 -92 -25 -77 18 11 11 -31 -8 -48 -20 -19 -47 -23 -37 -7 4 6 10 8 15 5 4
-3 6 5 2 17 l-5 22 -8 -22 c-5 -12 -13 -22 -18 -22 -11 0 -4 27 11 46 4 6 6
19 2 28 -4 10 0 18 10 22 9 3 16 10 16 15 0 5 -10 4 -22 -3 -41 -24 -46 -31
-35 -50 8 -12 7 -21 -3 -33 -9 -11 -15 -13 -20 -4 -5 8 -13 8 -25 1 -15 -8 -5
-14 50 -32 62 -21 69 -21 77 -6 12 22 28 20 28 -2 0 -20 45 -50 57 -39 3 4 1
7 -6 7 -28 0 -52 45 -33 64 4 4 7 17 7 29 0 14 10 26 27 35 19 9 29 23 34 48
7 40 -3 157 -18 194 -6 14 -12 34 -14 45 -6 34 -36 119 -49 135 -6 8 -20 35
-30 60 -11 25 -25 49 -32 53 -7 4 -13 15 -13 22 0 8 -5 15 -11 15 -13 0 -39
25 -39 38 0 4 -11 19 -25 32 -14 13 -25 20 -25 15z m178 -273 c2 -15 -2 -22
-12 -22 -11 0 -16 9 -16 26 0 31 23 28 28 -4z m30 -93 c-3 -20 -5 -19 -9 9 -3
20 -2 29 4 23 5 -5 7 -19 5 -32z m17 -50 c5 -14 2 -25 -6 -30 -11 -7 -10 -9 4
-9 9 0 17 -5 17 -10 0 -6 -11 -8 -24 -6 -14 2 -27 -1 -30 -7 -2 -7 -5 6 -5 29
-1 22 2 44 6 47 13 14 32 7 38 -14z m19 -91 c2 -13 4 -32 3 -44 -1 -18 -6 -20
-27 -14 -41 10 -41 80 -1 80 13 0 22 -8 25 -22z"/>
<path d="M1135 1520 c-3 -5 1 -10 10 -10 9 0 13 5 10 10 -3 6 -8 10 -10 10 -2
0 -7 -4 -10 -10z"/>
<path d="M400 1506 c0 -2 7 -7 16 -10 8 -3 12 -2 9 4 -6 10 -25 14 -25 6z"/>
<path d="M582 1496 c7 -8 15 -12 17 -11 5 6 -10 25 -20 25 -5 0 -4 -6 3 -14z"/>
<path d="M562 1485 c4 -4 3 -14 -3 -22 -7 -8 -8 -13 -1 -13 15 0 23 28 9 36
-7 4 -9 4 -5 -1z"/>
<path d="M675 1480 c-3 -5 -1 -10 4 -10 6 0 11 5 11 10 0 6 -2 10 -4 10 -3 0
-8 -4 -11 -10z"/>
<path d="M1107 1475 c-4 -8 -2 -17 3 -20 6 -4 10 3 10 14 0 25 -6 27 -13 6z"/>
<path d="M789 1463 c-1 -10 -1 -22 0 -26 1 -5 -3 -6 -7 -3 -5 3 -16 -2 -25
-12 -14 -16 -13 -17 11 -19 29 -1 55 14 47 27 -3 5 24 7 60 5 36 -1 68 1 71 6
3 5 14 9 25 9 13 0 19 -7 19 -24 0 -19 4 -23 20 -19 11 3 20 10 20 17 0 6 3
21 6 34 6 19 3 22 -24 22 -17 0 -34 -5 -38 -11 -3 -6 -17 -9 -30 -6 -14 2 -27
0 -30 -4 -8 -13 -62 -11 -70 2 -3 6 -15 9 -25 6 -11 -3 -17 -1 -13 4 3 5 0 9
-5 9 -6 0 -12 -8 -12 -17z"/>
<path d="M1520 1471 c-3 -7 -4 -30 -1 -50 3 -30 5 -33 12 -16 6 13 7 4 3 -25
-4 -27 -15 -55 -30 -71 -13 -14 -24 -30 -24 -37 0 -7 -5 -12 -11 -12 -6 0 -9
-7 -5 -15 3 -8 2 -14 -2 -13 -12 4 -52 -22 -52 -34 0 -6 8 -4 18 5 10 10 24
17 30 17 17 0 45 47 36 61 -5 8 -2 10 8 7 8 -4 22 1 30 10 20 23 57 53 91 75
40 26 25 34 -16 8 -38 -23 -57 -14 -57 26 0 13 -4 23 -9 23 -5 0 -11 12 -13
28 -2 15 -6 21 -8 13z m33 -126 c-7 -21 -13 -19 -13 6 0 11 4 18 10 14 5 -3 7
-12 3 -20z"/>
<path d="M737 1440 c-18 -20 -31 -28 -44 -24 -15 5 -16 4 -3 -5 21 -15 22 -15
53 24 34 43 29 47 -6 5z"/>
<path d="M1056 1444 c-4 -14 -5 -28 -3 -31 3 -2 8 8 11 23 4 14 5 28 3 31 -3
2 -8 -8 -11 -23z"/>
<path d="M1157 1457 c-2 -7 -3 -22 -2 -34 1 -13 -1 -23 -5 -23 -4 0 -5 -12 -2
-26 5 -25 5 -25 18 12 9 28 10 42 2 51 -8 10 -7 12 6 7 9 -3 16 -2 16 4 0 15
-28 23 -33 9z"/>
<path d="M1441 1448 c-4 -13 -8 -61 -8 -108 -1 -90 2 -94 12 -18 6 45 7 47 31
38 15 -6 24 -6 24 0 0 5 -11 12 -25 16 -24 6 -25 10 -21 50 6 48 0 57 -13 22z"/>
<path d="M1473 1435 c0 -15 5 -25 14 -25 10 0 11 5 4 19 -6 10 -7 21 -4 25 3
3 2 6 -4 6 -6 0 -10 -11 -10 -25z"/>
<path d="M1335 1439 c5 -7 8 -41 8 -74 -1 -37 1 -51 6 -36 6 23 7 23 24 7 9
-10 17 -26 17 -37 0 -10 4 -19 9 -19 12 0 -6 71 -21 85 -8 7 -8 5 -3 -5 8 -13
7 -13 -8 -1 -9 7 -17 19 -16 25 0 7 2 7 6 -1 3 -9 11 -8 29 4 17 11 21 19 14
28 -5 6 -7 15 -4 18 4 3 -2 6 -12 5 -11 0 -28 3 -38 7 -15 7 -17 5 -11 -6z
m55 -34 c0 -2 -7 -5 -15 -9 -9 -3 -15 0 -15 9 0 9 6 12 15 9 8 -4 15 -7 15 -9z"/>
<path d="M956 1418 c-3 -13 -1 -27 4 -32 7 -7 10 1 10 22 0 37 -5 41 -14 10z"/>
<path d="M1120 1407 c0 -20 4 -37 10 -37 5 0 7 14 3 33 -8 45 -13 47 -13 4z"/>
<path d="M1261 1414 c-26 -34 -26 -41 2 -65 l22 -20 -25 11 c-24 11 -24 10 -6
-4 11 -9 25 -16 32 -16 20 0 36 28 29 50 -8 26 -25 26 -25 0 0 -18 -3 -19 -22
-9 l-23 12 23 10 c23 10 30 27 11 27 -5 0 -7 5 -3 12 5 7 11 5 21 -7 7 -11 13
-14 13 -8 0 6 -6 16 -14 22 -11 9 -18 6 -35 -15z m49 -59 c0 -8 -4 -15 -10
-15 -5 0 -7 7 -4 15 4 8 8 15 10 15 2 0 4 -7 4 -15z"/>
<path d="M600 1420 c-18 -12 -2 -12 25 0 13 6 15 9 5 9 -8 0 -22 -4 -30 -9z"/>
<path d="M832 1383 c-14 -48 -15 -68 -1 -33 8 19 12 22 19 10 5 -8 6 -18 4
-22 -3 -4 2 -8 10 -8 9 0 16 7 16 16 0 9 5 12 12 8 7 -4 8 -3 4 4 -4 7 -3 12
3 12 6 0 16 10 22 23 12 22 12 22 -9 4 -11 -10 -22 -15 -24 -10 -3 4 -3 2 -2
-4 6 -25 -25 -12 -33 13 -9 27 -9 27 -21 -13z"/>
<path d="M1191 1404 c0 -11 3 -14 6 -6 3 7 2 16 -1 19 -3 4 -6 -2 -5 -13z"/>
<path d="M523 1388 c1 -15 6 -23 11 -18 4 4 4 16 -2 26 -9 16 -10 14 -9 -8z"/>
<path d="M1050 1379 c-7 -11 -9 -23 -6 -27 3 -3 6 1 7 9 1 8 5 3 9 -11 7 -21
8 -20 7 12 -1 21 -3 38 -4 38 -1 0 -7 -9 -13 -21z"/>
<path d="M1415 1380 c-3 -5 -1 -10 4 -10 6 0 11 5 11 10 0 6 -2 10 -4 10 -3 0
-8 -4 -11 -10z"/>
<path d="M697 1369 c6 -6 9 -17 7 -24 -3 -7 -1 -16 5 -20 7 -4 8 0 4 11 -5 13
-3 15 8 9 8 -5 5 1 -5 13 -11 12 -22 22 -25 22 -3 0 0 -5 6 -11z"/>
<path d="M926 1364 c-23 -23 -20 -31 14 -36 19 -3 30 0 30 8 0 7 -8 10 -22 7
-22 -5 -22 -5 -4 9 12 10 15 17 8 22 -6 3 -18 -1 -26 -10z"/>
<path d="M1191 1364 c0 -11 3 -14 6 -6 3 7 2 16 -1 19 -3 4 -6 -2 -5 -13z"/>
<path d="M561 1354 c0 -11 3 -14 6 -6 3 7 2 16 -1 19 -3 4 -6 -2 -5 -13z"/>
<path d="M391 1356 c2 -2 15 -9 29 -15 24 -11 24 -11 6 3 -16 13 -49 24 -35
12z"/>
<path d="M673 1348 c-12 -15 -24 -48 -18 -48 2 0 10 14 19 30 15 32 15 38 -1
18z"/>
<path d="M1132 1340 c7 -10 14 -18 15 -16 6 6 -9 36 -18 36 -5 0 -4 -9 3 -20z"/>
<path d="M522 1330 c0 -14 2 -19 5 -12 2 6 2 18 0 25 -3 6 -5 1 -5 -13z"/>
<path d="M470 1336 c0 -2 8 -10 18 -17 15 -13 16 -12 3 4 -13 16 -21 21 -21
13z"/>
<path d="M772 1333 c-9 -3 -11 -16 -6 -39 4 -21 2 -40 -6 -49 -18 -22 -27 -19
-38 13 -21 53 -30 60 -47 35 -9 -13 -22 -23 -29 -23 -8 0 -21 -11 -30 -25 -18
-28 -39 -34 -29 -8 4 11 3 14 -5 9 -7 -4 -12 -16 -12 -27 0 -11 -10 -23 -24
-29 -14 -5 -30 -19 -37 -32 -7 -13 -17 -26 -23 -30 -6 -4 -8 -9 -5 -12 7 -7
79 13 79 23 0 8 122 91 134 91 5 0 5 -11 2 -25 -8 -31 18 -35 33 -6 7 13 29
22 68 29 32 5 62 8 68 7 5 -2 22 -6 38 -9 40 -9 33 -26 -10 -25 -48 1 -105 -9
-117 -22 -6 -5 -18 -9 -27 -9 -10 0 -20 -4 -23 -9 -4 -5 3 -7 14 -4 15 4 20 0
20 -15 0 -30 19 -37 36 -14 8 12 20 19 27 16 7 -2 22 4 32 16 22 24 63 26 80
4 9 -13 15 -14 31 -4 28 18 101 -4 132 -40 20 -23 28 -26 42 -18 23 15 15 41
-18 60 -15 9 -39 28 -54 41 -19 18 -45 28 -89 34 -70 9 -84 25 -42 47 l28 15
-25 9 c-14 5 -37 6 -52 1 -16 -4 -30 -3 -34 2 -3 6 -12 5 -21 -3 -12 -10 -18
-8 -31 9 -10 11 -23 18 -30 16z"/>
<path d="M1579 1317 c-22 -18 -25 -26 -18 -44 4 -13 13 -23 18 -23 5 0 14 -14
20 -30 11 -34 37 -48 53 -32 11 11 4 46 -24 125 -12 32 -15 33 -49 4z"/>
<path d="M726 1313 c-6 -14 -5 -15 5 -6 7 7 10 15 7 18 -3 3 -9 -2 -12 -12z"/>
<path d="M1043 1290 c0 -25 2 -35 4 -22 2 12 2 32 0 45 -2 12 -4 2 -4 -23z"/>
<path d="M551 1298 c-1 -21 3 -26 15 -21 9 3 11 9 6 12 -5 3 -12 13 -15 21 -3
9 -6 4 -6 -12z"/>
<path d="M1167 1313 c-4 -3 -2 -14 3 -24 13 -22 -3 -34 -27 -20 -22 11 -75 3
-70 -12 3 -11 35 -18 81 -17 31 1 66 -24 66 -47 0 -7 4 -13 10 -13 5 0 19 -18
29 -39 43 -84 76 -94 66 -21 -5 33 -3 50 4 50 15 0 24 -45 18 -90 -4 -33 -1
-45 24 -72 16 -18 29 -39 29 -47 0 -8 6 -11 16 -7 9 3 18 6 20 6 2 0 4 6 4 13
0 22 35 47 71 53 40 6 98 -25 106 -57 5 -18 6 -18 18 -2 10 14 16 15 27 5 12
-9 15 -9 15 3 0 8 -4 12 -10 8 -5 -3 -7 8 -6 23 2 16 1 34 -2 39 -4 6 -9 22
-13 38 -3 15 -11 27 -17 27 -6 0 -10 -12 -9 -27 3 -46 1 -48 -25 -23 -15 14
-27 39 -31 67 -5 35 -13 49 -35 62 -16 10 -26 21 -22 24 3 4 -1 7 -10 7 -9 0
-22 -8 -29 -18 -14 -19 -78 -29 -78 -12 0 6 5 19 12 30 10 16 9 23 -10 43 -12
13 -22 30 -22 38 0 11 -2 11 -8 1 -10 -14 -42 -6 -42 11 0 8 -3 8 -10 1 -8 -8
-7 -20 1 -40 15 -36 20 -84 8 -84 -5 0 -9 5 -9 11 0 6 -11 24 -25 41 -30 35
-31 45 -7 50 15 3 14 5 -3 9 -16 5 -21 1 -23 -15 0 -11 4 -26 9 -32 7 -9 5
-16 -10 -23 -11 -6 -22 -11 -25 -11 -7 0 -36 61 -36 76 0 15 -15 26 -23 17z
m213 -99 c0 -14 7 -38 15 -54 9 -17 13 -30 10 -30 -3 0 2 -18 11 -39 13 -33
13 -43 3 -63 -7 -13 -12 -27 -10 -33 1 -5 -8 0 -20 12 -21 20 -23 32 -23 132
-1 60 2 107 7 104 4 -2 7 -15 7 -29z m140 -47 c18 -14 42 -76 34 -88 -11 -18
-24 -7 -44 37 -28 65 -25 80 10 51z"/>
<path d="M1461 1304 c0 -11 3 -14 6 -6 3 7 2 16 -1 19 -3 4 -6 -2 -5 -13z"/>
<path d="M605 1301 c-3 -5 -1 -12 4 -15 5 -3 11 1 15 9 6 16 -9 21 -19 6z"/>
<path d="M980 1300 c0 -5 10 -10 23 -10 18 0 19 2 7 10 -19 13 -30 13 -30 0z"/>
<path d="M427 1283 c-4 -3 -7 -19 -7 -35 0 -20 -12 -41 -39 -68 -24 -24 -34
-40 -25 -40 9 0 12 -5 9 -10 -4 -6 -10 -8 -14 -6 -4 3 -8 -1 -8 -9 0 -12 4
-12 21 2 12 10 25 24 29 31 4 6 15 12 22 12 17 0 20 -26 5 -35 -6 -4 -8 -11
-4 -16 3 -5 -5 -19 -18 -30 l-23 -20 33 16 c25 12 32 22 32 45 0 45 17 79 45
90 14 5 25 16 25 23 0 27 -67 67 -83 50z m18 -33 c3 -5 1 -10 -4 -10 -6 0 -11
5 -11 10 0 6 2 10 4 10 3 0 8 -4 11 -10z m-11 -42 c-5 -8 -2 -9 10 -5 11 4 15
3 11 -4 -4 -6 -13 -8 -21 -5 -8 3 -14 0 -14 -6 0 -6 -2 -9 -5 -6 -8 8 6 38 17
38 5 0 6 -5 2 -12z m-34 -42 c0 -2 -7 -9 -15 -16 -13 -11 -14 -10 -9 4 5 14
24 23 24 12z"/>
<path d="M530 1248 c0 -9 7 -22 17 -29 15 -13 15 -12 3 11 -17 34 -20 36 -20
18z"/>
<path d="M324 1185 c-3 -8 -4 -20 -2 -27 3 -7 7 -1 10 15 6 29 1 36 -8 12z"/>
<path d="M640 1142 c0 -5 7 -9 15 -9 8 0 15 4 15 9 0 4 -7 8 -15 8 -8 0 -15
-4 -15 -8z"/>
<path d="M560 1111 c0 -6 4 -13 10 -16 6 -3 7 1 4 9 -7 18 -14 21 -14 7z"/>
<path d="M973 1113 c-27 -10 -11 -21 25 -16 24 3 44 -1 57 -11 18 -13 18 -17
6 -37 -12 -20 -11 -24 5 -36 10 -7 25 -11 32 -8 8 3 17 5 22 5 10 0 19 46 11
58 -3 5 -26 19 -50 31 -43 20 -81 25 -108 14z m147 -57 c0 -18 -16 -29 -30
-21 -13 8 -1 35 16 35 8 0 14 -6 14 -14z"/>
<path d="M657 1093 c-8 -7 -9 -43 -2 -43 3 0 14 9 25 20 11 11 20 22 20 25 0
7 -36 6 -43 -2z"/>
<path d="M495 1070 c3 -5 8 -10 11 -10 2 0 4 5 4 10 0 6 -5 10 -11 10 -5 0 -7
-4 -4 -10z"/>
<path d="M300 1045 c-14 -8 -20 -14 -14 -15 5 0 19 7 30 15 24 18 16 19 -16 0z"/>
<path d="M1298 1021 c2 -16 -1 -32 -7 -35 -6 -4 -11 -2 -11 3 0 19 -17 12 -23
-9 -4 -16 2 -22 36 -30 23 -6 50 -13 60 -16 22 -7 22 5 -2 30 -10 12 -23 34
-28 50 -12 40 -31 45 -25 7z"/>
<path d="M413 1033 c-7 -3 -13 -11 -13 -19 0 -8 -10 -14 -22 -14 -17 0 -19 -3
-9 -9 10 -6 10 -10 1 -16 -6 -4 -9 -17 -6 -30 3 -13 2 -26 -3 -29 -4 -3 -7
-22 -6 -43 3 -52 3 -53 18 -53 14 0 39 49 31 61 -3 5 0 9 5 9 6 0 11 9 11 19
0 13 6 19 19 18 15 -1 17 -4 9 -14 -12 -14 -13 -127 -2 -176 4 -22 0 -35 -18
-55 -12 -14 5 -4 40 22 69 52 68 48 13 108 -26 30 -37 90 -14 81 7 -3 13 1 13
8 -1 18 -25 50 -33 43 -8 -9 -20 43 -14 59 7 18 -5 35 -20 30z m-12 -56 c-6
-8 -7 -18 -3 -22 4 -5 1 -5 -6 -1 -10 6 -10 11 -1 22 6 8 14 14 16 14 3 0 0
-6 -6 -13z m-21 -128 c0 -5 -4 -9 -10 -9 -5 0 -10 7 -10 16 0 8 5 12 10 9 6
-3 10 -10 10 -16z"/>
<path d="M985 1030 c-3 -5 -1 -10 4 -10 6 0 11 5 11 10 0 6 -2 10 -4 10 -3 0
-8 -4 -11 -10z"/>
<path d="M307 1013 c-4 -3 -7 -11 -7 -17 0 -6 5 -5 12 2 6 6 9 14 7 17 -3 3
-9 2 -12 -2z"/>
<path d="M470 1010 c0 -5 5 -10 11 -10 5 0 7 5 4 10 -3 6 -8 10 -11 10 -2 0
-4 -4 -4 -10z"/>
<path d="M267 1004 c-4 -4 -7 -14 -7 -23 0 -11 3 -12 11 -4 6 6 10 16 7 23 -2
6 -7 8 -11 4z"/>
<path d="M1692 990 c0 -14 2 -19 5 -12 2 6 2 18 0 25 -3 6 -5 1 -5 -13z"/>
<path d="M770 970 c-12 -8 -11 -10 8 -10 12 0 22 5 22 10 0 13 -11 13 -30 0z"/>
<path d="M1075 950 c-3 -5 -18 -11 -33 -11 -21 -1 -23 -2 -7 -6 11 -3 26 -10
33 -15 6 -6 12 -7 13 -2 0 5 2 17 4 27 4 19 -1 22 -10 7z"/>
<path d="M1478 879 c-10 -5 -18 -14 -18 -19 0 -12 53 -40 75 -40 27 0 30 31 6
52 -26 20 -38 22 -63 7z"/>
<path d="M465 870 c-16 -26 45 -73 74 -56 5 3 11 2 13 -4 5 -15 48 18 48 36 0
19 -28 30 -43 15 -16 -16 -44 -14 -51 4 -6 17 -32 20 -41 5z"/>
<path d="M820 843 c-8 -2 -21 -7 -29 -9 -11 -4 -9 -8 7 -19 19 -14 23 -13 46
10 20 20 22 25 8 24 -9 0 -24 -3 -32 -6z"/>
<path d="M1078 830 c-7 -11 -19 -20 -26 -20 -7 0 -20 -7 -29 -15 -8 -8 -27
-15 -41 -14 -15 0 -43 -4 -63 -9 -24 -6 -43 -6 -55 1 -18 10 -18 9 0 -11 21
-24 14 -27 -32 -11 -17 6 -41 26 -54 44 -34 50 -70 50 -130 2 -44 -36 -46 -39
-31 -57 9 -10 21 -17 25 -14 11 7 48 -25 48 -40 0 -13 57 -75 114 -124 21 -18
35 -36 32 -40 -4 -3 -28 5 -54 17 -26 13 -62 25 -81 27 -42 6 -71 21 -71 39 0
7 -5 15 -11 17 -6 2 -13 15 -14 28 -4 39 -4 40 -15 40 -5 0 -10 -7 -10 -15 0
-23 -19 -18 -32 10 -6 13 -15 22 -20 19 -4 -3 -5 -10 -2 -16 4 -6 3 -9 -2 -5
-5 3 -17 -1 -27 -8 -15 -11 -15 -14 -3 -24 8 -7 12 -19 9 -26 -3 -8 5 -26 16
-41 12 -15 21 -33 21 -40 0 -8 4 -14 8 -14 5 0 9 -7 9 -15 0 -8 -9 -15 -19
-15 -15 0 -17 -5 -12 -27 9 -38 18 -45 12 -10 -4 18 -1 26 6 24 6 -2 11 -10
11 -18 0 -8 10 -18 23 -24 12 -5 25 -18 28 -27 3 -10 9 -18 13 -18 4 0 13 -11
19 -25 15 -32 16 -56 2 -35 -7 11 -10 12 -10 2 0 -21 40 -72 56 -72 20 0 17
-30 -3 -30 -14 -1 -12 -4 7 -15 30 -17 90 -20 90 -4 0 6 8 8 18 5 13 -5 13 -3
-3 9 -11 8 -37 26 -57 41 -58 43 -45 59 24 30 31 -13 90 -22 196 -30 52 -4 59
-10 38 -31 -21 -21 -20 -35 2 -35 9 -1 43 -3 74 -6 31 -3 89 -1 130 6 50 7 74
8 76 0 2 -5 8 -8 13 -4 5 3 9 0 9 -6 0 -6 -6 -10 -12 -9 -17 3 -68 -10 -90
-21 -27 -15 -99 -29 -92 -19 7 11 -44 11 -71 -1 -24 -10 -25 -10 45 -15 39 -3
66 1 98 15 25 11 62 20 84 20 31 0 40 4 47 22 5 15 4 26 -2 30 -7 4 -1 11 13
16 86 33 137 63 148 87 7 14 12 28 12 30 0 10 -56 -27 -81 -55 -26 -28 -33
-31 -81 -28 -48 3 -53 5 -51 26 3 28 -29 30 -48 2 -9 -12 -27 -20 -49 -21 -54
-3 -137 11 -157 27 -16 13 -11 14 52 13 39 0 81 2 95 4 14 2 29 5 33 6 5 0 6
10 2 20 -6 21 16 39 51 41 64 2 84 7 100 21 25 21 77 46 114 54 20 4 35 16 40
31 5 13 14 24 20 24 6 0 10 6 8 13 -2 7 14 31 35 53 21 21 58 66 82 99 45 60
45 74 1 75 -14 0 -16 -3 -8 -13 8 -9 2 -20 -19 -41 -16 -16 -32 -26 -36 -23
-3 4 -1 7 5 7 9 0 36 69 29 76 -1 1 -14 5 -28 9 -24 6 -28 3 -39 -32 -17 -52
-49 -103 -65 -103 -7 0 -18 -15 -24 -32 -10 -31 -22 -41 -110 -95 -44 -27 -50
-32 -81 -72 -33 -44 -70 -58 -165 -61 -57 -3 -65 -1 -65 10 0 6 12 10 26 10
61 0 115 22 137 56 12 18 36 39 52 46 17 7 51 35 78 62 26 27 57 54 69 60 13
6 25 20 27 31 2 11 18 34 36 50 28 26 55 64 55 78 0 3 -8 7 -18 9 -14 4 -22
-3 -31 -27 -7 -20 -33 -49 -66 -74 -64 -49 -73 -38 -14 16 52 48 75 89 59 108
-9 10 -18 11 -41 3 -17 -6 -48 -8 -70 -4 -28 4 -39 3 -39 -6 0 -21 -54 -40
-83 -29 -14 5 -28 14 -31 20 -4 6 -33 -4 -76 -27 -75 -40 -102 -37 -53 6 17
15 34 37 38 50 8 27 -1 29 -17 2z m-251 -120 c17 0 35 -4 38 -10 3 -5 15 -10
26 -10 10 0 19 -4 19 -10 0 -16 56 -39 91 -39 44 2 109 20 109 31 0 4 10 8 23
8 13 0 28 5 33 10 6 6 20 12 33 15 12 2 31 14 41 27 11 13 19 19 20 13 0 -16
-63 -75 -81 -75 -9 0 -40 -22 -69 -50 -59 -57 -90 -63 -154 -30 -22 10 -43 17
-48 14 -15 -10 -46 6 -51 27 -4 15 -11 19 -24 15 -12 -4 -27 2 -41 14 -11 11
-25 20 -31 20 -5 0 -14 12 -20 28 -6 15 -20 41 -30 57 -37 57 -21 58 32 2 42
-47 58 -57 84 -57z m537 87 c3 3 6 1 6 -5 0 -7 -12 -12 -26 -12 -14 0 -23 -4
-19 -10 3 -5 -1 -20 -9 -32 -12 -16 -16 -18 -16 -7 0 9 3 19 8 23 7 8 8 13 11
41 1 12 5 13 20 6 10 -6 21 -7 25 -4z m-139 -38 c-4 -6 -10 -8 -13 -5 -3 3
-14 -1 -24 -11 -10 -9 -18 -13 -18 -8 0 11 32 34 48 35 7 0 10 -5 7 -11z
m-222 -36 c48 -6 74 -22 40 -24 -65 -6 -148 15 -137 33 4 5 16 7 28 4 11 -4
43 -9 69 -13z m310 -31 c-6 -14 -25 -12 -30 4 -2 5 5 10 16 10 11 0 17 -5 14
-14z m-45 -31 c-6 -10 -18 -17 -25 -14 -7 3 -13 -1 -13 -9 0 -8 -11 -20 -25
-26 -28 -13 -34 -2 -10 18 8 7 15 9 15 5 0 -4 9 4 21 19 25 31 56 37 37 7z
m235 -89 c-32 -31 -69 -64 -83 -73 -32 -20 -90 -40 -90 -31 0 4 38 33 83 65
46 31 97 71 113 88 16 16 30 25 32 19 2 -6 -22 -36 -55 -68z m-243 30 c0 -25
-102 -93 -117 -78 -12 12 20 56 41 56 12 0 30 7 40 15 22 17 36 19 36 7z
m-634 -39 c33 -71 77 -134 88 -123 6 6 24 -2 52 -25 23 -19 48 -35 56 -35 17
0 118 -53 118 -63 0 -11 -119 -2 -165 12 -64 21 -89 35 -99 57 -5 12 -22 25
-36 31 -29 11 -37 33 -47 131 -6 62 8 69 33 15z m277 -57 c17 -13 28 -13 145
0 29 3 60 3 69 0 14 -6 14 -8 -1 -25 -23 -25 -98 -43 -144 -35 -38 7 -102 47
-102 65 0 13 12 11 33 -5z m-80 -46 c35 -16 71 -30 81 -30 9 0 24 -4 34 -9 9
-5 28 -14 42 -20 22 -9 21 -10 -15 -6 -22 2 -40 4 -40 5 0 1 -12 3 -27 5 -37
5 -98 35 -128 62 -33 30 -23 29 53 -7z m-148 -110 c3 -5 1 -10 -4 -10 -6 0
-11 5 -11 10 0 6 2 10 4 10 3 0 8 -4 11 -10z m592 -96 c-11 -11 -127 -25 -164
-19 -71 10 -49 25 38 24 44 -1 82 1 85 4 3 3 14 2 25 0 11 -3 18 -7 16 -9z"/>
<path d="M1721 704 c0 -11 3 -14 6 -6 3 7 2 16 -1 19 -3 4 -6 -2 -5 -13z"/>
<path d="M390 664 c0 -5 -12 -17 -27 -26 -16 -10 -23 -17 -18 -18 17 0 60 38
52 46 -4 4 -7 3 -7 -2z"/>
<path d="M430 620 c-19 -16 -32 -29 -29 -30 4 0 22 13 40 30 19 16 32 30 29
30 -3 0 -21 -13 -40 -30z"/>
<path d="M1648 553 c-18 -21 -21 -86 -4 -76 6 4 7 2 3 -3 -5 -5 -14 -9 -20 -9
-7 -1 -11 -6 -10 -13 4 -15 -28 -4 -44 16 -11 14 -13 13 -13 -5 0 -32 -10 -53
-26 -53 -8 0 -14 -4 -14 -9 0 -6 12 -9 28 -8 22 2 26 -2 24 -18 -2 -11 -11
-29 -20 -40 -9 -11 5 0 30 24 49 46 99 135 105 183 3 32 -16 37 -39 11z m-18
-129 c0 -8 -19 -13 -24 -6 -3 5 1 9 9 9 8 0 15 -2 15 -3z"/>
<path d="M375 550 c-3 -6 1 -7 9 -4 18 7 21 14 7 14 -6 0 -13 -4 -16 -10z"/>
<path d="M416 530 c4 -14 7 -30 7 -37 0 -6 6 -9 14 -6 7 3 13 11 13 18 0 8 8
16 18 18 15 4 15 5 0 6 -9 0 -20 -4 -24 -10 -4 -8 -12 -3 -21 12 l-14 24 7
-25z"/>
<path d="M361 519 c-1 -9 7 -23 17 -30 15 -12 16 -12 6 1 -6 8 -14 22 -17 30
-5 13 -6 12 -6 -1z"/>
<path d="M490 526 c0 -2 7 -7 16 -10 8 -3 12 -2 9 4 -6 10 -25 14 -25 6z"/>
<path d="M441 470 c0 -19 23 -50 38 -50 6 0 16 -11 21 -25 5 -14 15 -26 22
-27 7 0 20 -2 28 -2 8 -1 14 -9 12 -18 -1 -10 7 -19 20 -23 13 -4 31 -14 41
-23 9 -8 17 -10 17 -5 0 6 -7 16 -15 23 -8 7 -15 21 -15 31 0 11 -5 19 -10 19
-6 0 -22 12 -35 26 -14 15 -39 28 -56 30 -39 5 -48 11 -59 38 -5 12 -9 15 -9
6z m84 -60 c3 -5 1 -10 -4 -10 -6 0 -11 5 -11 10 0 6 2 10 4 10 3 0 8 -4 11
-10z"/>
<path d="M840 220 c-21 -7 -22 -8 -5 -10 17 -1 15 -3 -7 -11 l-27 -10 21 -24
c26 -31 72 -32 56 -2 -7 13 -7 17 0 13 6 -3 13 -2 16 3 4 5 1 13 -5 16 -5 4
-8 13 -5 21 6 15 -6 16 -44 4z m25 -60 c3 -5 2 -10 -4 -10 -5 0 -13 5 -16 10
-3 6 -2 10 4 10 5 0 13 -4 16 -10z"/>
<path d="M1376 221 c-4 -5 3 -7 14 -4 23 6 26 13 6 13 -8 0 -17 -4 -20 -9z"/>
<path d="M620 195 c7 -9 15 -13 17 -11 7 7 -7 26 -19 26 -6 0 -6 -6 2 -15z"/>
<path d="M690 170 l-25 -8 28 -1 c15 -1 27 4 27 9 0 6 -1 10 -2 9 -2 -1 -14
-5 -28 -9z"/>
<path d="M890 120 c14 -4 32 -8 40 -9 13 -1 13 0 0 9 -8 5 -26 9 -40 9 l-25
-1 25 -8z"/>
</g>
</svg>
